# xmcd
#
# Track frame offsets:
#	182
#	18185
#	35912
#	57407
#	75312
#	92102
#	111475
#	131942
#	154745
#	175082
#
# Disc length: 2645 seconds
#
# Revision: 17
# Processed by: cddbd v1.5.2PL0 Copyright (c) Steve Scherf et al.
# Submitted via: EasyCDDAExtractor 15.3.0.1
#
DISCID=810a530a
DTITLE=Cher - Believe
DYEAR=1998
DGENRE=Pop
TTITLE0=Believe
TTITLE1=The Power
TTITLE2=Runaway
TTITLE3=All Or Nothing
TTITLE4=Strong Enough
TTITLE5=Dov'e L'amore
TTITLE6=Takin' Back My Heart
TTITLE7=Taxi Taxi
TTITLE8=Love Is The Groove
TTITLE9=We All Sleep Alone
EXTD=\n YEAR: 1998
EXTT0=
EXTT1=
EXTT2=
EXTT3=
EXTT4=
EXTT5=
EXTT6=
EXTT7=
EXTT8=
EXTT9=
PLAYORDER=
